<svg width="25" height="25" viewBox="0 0 25 25" fill="none" xmlns="http://www.w3.org/2000/svg">
<g clip-path="url(#clip0_119_535)">
<path fill-rule="evenodd" clip-rule="evenodd" d="M14.1663 1.36968C14.1663 1.01448 14.0252 0.673828 13.774 0.422663C13.5228 0.171498 13.1822 0.0303955 12.827 0.0303955C12.4718 0.0303955 12.1311 0.171498 11.88 0.422663C11.6288 0.673828 11.4877 1.01448 11.4877 1.36968V2.71611C11.4877 3.07131 11.6288 3.41196 11.88 3.66313C12.1311 3.91429 12.4718 4.0554 12.827 4.0554C13.1822 4.0554 13.5228 3.91429 13.774 3.66313C14.0252 3.41196 14.1663 3.07131 14.1663 2.71611V1.36968ZM11.777 5.22861C12.0846 5.05137 12.45 5.00354 12.7929 5.09563C13.1358 5.18771 13.4281 5.41217 13.6056 5.71968L20.4949 17.65C20.6697 17.9575 20.7158 18.3216 20.6231 18.6629C20.5304 19.0042 20.3065 19.295 20.0002 19.4718C19.694 19.6487 19.3302 19.6972 18.9883 19.6068C18.6464 19.5164 18.3541 19.2944 18.1752 18.9893L18.077 18.8179L12.5556 20.1C12.8024 21.0073 12.711 21.9734 12.2985 22.8184C11.886 23.6633 11.1805 24.3296 10.3133 24.6931C9.44615 25.0565 8.47643 25.0925 7.58474 24.7941C6.69304 24.4958 5.94016 23.8836 5.46628 23.0715L5.46271 23.0661L4.79128 21.9036L2.19485 22.5054C2.00844 22.5487 1.81306 22.5309 1.63752 22.4547C1.46197 22.3785 1.31556 22.2479 1.21985 22.0822L0.132352 20.1983C0.0368979 20.0325 -0.00282361 19.8405 0.0190367 19.6506C0.040897 19.4606 0.123184 19.2826 0.253781 19.1429L11.3877 7.23218L11.2859 7.05897C11.1979 6.90656 11.1408 6.7383 11.1178 6.56381C11.0948 6.38931 11.1065 6.212 11.1521 6.042C11.1977 5.87201 11.2764 5.71268 11.3836 5.57311C11.4908 5.43354 11.6245 5.31648 11.777 5.22861ZM7.51807 21.2697L9.94128 20.7072C10.0469 20.9889 10.0426 21.3001 9.92938 21.5788C9.81611 21.8576 9.60212 22.0835 9.32993 22.2117C9.05774 22.3399 8.74727 22.3611 8.46022 22.2709C8.17317 22.1807 7.93055 21.9859 7.78057 21.725L7.51807 21.2697ZM24.9824 12.184C24.9824 12.5392 24.8413 12.8798 24.5901 13.131C24.3389 13.3821 23.9983 13.5233 23.6431 13.5233H22.2966C21.9414 13.5233 21.6008 13.3821 21.3496 13.131C21.0985 12.8798 20.9574 12.5392 20.9574 12.184C20.9574 11.8288 21.0985 11.4881 21.3496 11.2369C21.6008 10.9858 21.9414 10.8447 22.2966 10.8447H23.6413C23.9965 10.8447 24.3371 10.9858 24.5883 11.2369C24.8395 11.4881 24.9824 11.8288 24.9824 12.184ZM3.36092 13.5233C3.71612 13.5233 4.05678 13.3821 4.30794 13.131C4.55911 12.8798 4.70021 12.5392 4.70021 12.184C4.70021 11.8288 4.55911 11.4881 4.30794 11.2369C4.05678 10.9858 3.71612 10.8447 3.36092 10.8447H2.0145C1.65929 10.8447 1.31864 10.9858 1.06748 11.2369C0.816313 11.4881 0.67521 11.8288 0.67521 12.184C0.67521 12.5392 0.816313 12.8798 1.06748 13.131C1.31864 13.3821 1.65929 13.5233 2.0145 13.5233H3.36092ZM7.25735 6.61611C7.00624 6.86691 6.66584 7.00779 6.31092 7.00779C5.95601 7.00779 5.61561 6.86691 5.3645 6.61611L4.23235 5.48397C4.10077 5.36136 3.99523 5.2135 3.92203 5.04921C3.84883 4.88493 3.80947 4.70758 3.8063 4.52776C3.80312 4.34793 3.8362 4.16931 3.90356 4.00254C3.97092 3.83578 4.07118 3.68429 4.19836 3.55711C4.32553 3.42994 4.47702 3.32968 4.64379 3.26232C4.81055 3.19496 4.98917 3.16188 5.169 3.16505C5.34883 3.16823 5.52617 3.20759 5.69046 3.28079C5.85474 3.35399 6.0026 3.45953 6.12521 3.59111L7.25914 4.72147C7.38359 4.84584 7.48232 4.99352 7.54968 5.15607C7.61704 5.31861 7.65171 5.49284 7.65171 5.66879C7.65171 5.84474 7.61704 6.01896 7.54968 6.18151C7.48232 6.34405 7.38181 6.49173 7.25735 6.61611ZM21.4216 5.48397C21.6582 5.23008 21.787 4.89429 21.7809 4.54732C21.7748 4.20035 21.6342 3.86931 21.3888 3.62393C21.1434 3.37855 20.8124 3.23799 20.4654 3.23187C20.1185 3.22575 19.7827 3.35454 19.5288 3.59111L18.3824 4.73397C18.1311 4.98521 17.99 5.32597 17.99 5.68129C17.99 5.85722 18.0246 6.03143 18.0919 6.19397C18.1593 6.35652 18.2579 6.50421 18.3824 6.62861C18.5068 6.75301 18.6544 6.8517 18.817 6.91902C18.9795 6.98635 19.1537 7.021 19.3297 7.021C19.685 7.021 20.0257 6.87985 20.277 6.62861L21.4216 5.48397Z" fill="#A0E54F"/>
</g>
<defs>
<clipPath id="clip0_119_535">
<rect width="25" height="25" fill="white"/>
</clipPath>
</defs>
</svg>
