<svg width="27" height="27" viewBox="0 0 27 27" fill="none" xmlns="http://www.w3.org/2000/svg">
<path d="M4.125 17.75C3.03098 17.75 1.98177 17.3154 1.20818 16.5418C0.434597 15.7682 0 14.719 0 13.625C0 12.531 0.434597 11.4818 1.20818 10.7082C1.98177 9.9346 3.03098 9.5 4.125 9.5C5.21902 9.5 6.26823 9.9346 7.04182 10.7082C7.8154 11.4818 8.25 12.531 8.25 13.625C8.25 14.719 7.8154 15.7682 7.04182 16.5418C6.26823 17.3154 5.21902 17.75 4.125 17.75ZM13.5 17.75C12.406 17.75 11.3568 17.3154 10.5832 16.5418C9.8096 15.7682 9.375 14.719 9.375 13.625C9.375 12.531 9.8096 11.4818 10.5832 10.7082C11.3568 9.9346 12.406 9.5 13.5 9.5C14.594 9.5 15.6432 9.9346 16.4168 10.7082C17.1904 11.4818 17.625 12.531 17.625 13.625C17.625 14.719 17.1904 15.7682 16.4168 16.5418C15.6432 17.3154 14.594 17.75 13.5 17.75ZM22.875 17.75C21.781 17.75 20.7318 17.3154 19.9582 16.5418C19.1846 15.7682 18.75 14.719 18.75 13.625C18.75 12.531 19.1846 11.4818 19.9582 10.7082C20.7318 9.9346 21.781 9.5 22.875 9.5C23.969 9.5 25.0182 9.9346 25.7918 10.7082C26.5654 11.4818 27 12.531 27 13.625C27 14.719 26.5654 15.7682 25.7918 16.5418C25.0182 17.3154 23.969 17.75 22.875 17.75Z" fill="#325F38"/>
</svg>
