<svg width="38" height="38" viewBox="0 0 38 38" fill="none" xmlns="http://www.w3.org/2000/svg">
<path d="M24.0666 21.85L27.1541 18.7625C27.418 18.4986 27.484 18.2083 27.3521 17.8916C27.2201 17.575 26.9694 17.4166 26.6 17.4166H19.3166C18.9472 17.4166 18.6965 17.575 18.5646 17.8916C18.4326 18.2083 18.4986 18.4986 18.7625 18.7625L21.85 21.85C22.1666 22.1666 22.5361 22.325 22.9583 22.325C23.3805 22.325 23.75 22.1666 24.0666 21.85ZM12.6666 30.0833C9.57915 30.0833 6.96031 29.0082 4.81015 26.858C2.65998 24.7079 1.58437 22.0885 1.58331 19C1.58226 15.9114 2.65787 13.2926 4.81015 11.1435C6.96242 8.99435 9.58126 7.91874 12.6666 7.91663H25.3333C28.4208 7.91663 31.0402 8.99224 33.1914 11.1435C35.3426 13.2947 36.4177 15.9135 36.4166 19C36.4156 22.0864 35.3405 24.7058 33.1914 26.858C31.0423 29.0103 28.4229 30.0854 25.3333 30.0833H12.6666Z" fill="#BFBFBF"/>
</svg>
