<svg width="59" height="47" viewBox="0 0 59 47" fill="none" xmlns="http://www.w3.org/2000/svg">
<g clip-path="url(#clip0_10_188)">
<path d="M53.2805 28.3836C53.5202 27.0893 53.5202 25.7674 53.2805 24.473L55.6589 23.1053C55.9355 22.9492 56.0553 22.6279 55.9631 22.325C55.3455 20.3422 54.2853 18.543 52.9025 17.0559C52.6905 16.8264 52.3494 16.7713 52.0728 16.9273L49.6944 18.2951C48.6895 17.4414 47.5372 16.7805 46.2927 16.3398V13.6043C46.2927 13.2922 46.0714 13.0168 45.7672 12.9525C43.7114 12.4936 41.6188 12.5119 39.6644 12.9525C39.3602 13.0168 39.1389 13.2922 39.1389 13.6043V16.3398C37.8944 16.7805 36.742 17.4414 35.7372 18.2951L33.3587 16.9273C33.0914 16.7713 32.7411 16.8264 32.5291 17.0559C31.1463 18.543 30.0861 20.3422 29.4684 22.325C29.3763 22.6279 29.5053 22.9492 29.7727 23.1053L32.1511 24.473C31.9114 25.7674 31.9114 27.0893 32.1511 28.3836L29.7727 29.7514C29.4961 29.9074 29.3763 30.2287 29.4684 30.5316C30.0861 32.5145 31.1463 34.3045 32.5291 35.8008C32.7411 36.0303 33.0822 36.0854 33.3587 35.9293L35.7372 34.5615C36.742 35.4152 37.8944 36.0762 39.1389 36.5168V39.2523C39.1389 39.5645 39.3602 39.8398 39.6644 39.9041C41.7202 40.3631 43.8128 40.3447 45.7672 39.9041C46.0714 39.8398 46.2927 39.5645 46.2927 39.2523V36.5168C47.5372 36.0762 48.6895 35.4152 49.6944 34.5615L52.0728 35.9293C52.3402 36.0854 52.6905 36.0303 52.9025 35.8008C54.2853 34.3137 55.3455 32.5145 55.9631 30.5316C56.0553 30.2287 55.9263 29.9074 55.6589 29.7514L53.2805 28.3836ZM42.725 30.8805C40.2544 30.8805 38.2539 28.8793 38.2539 26.4283C38.2539 23.9773 40.2636 21.9762 42.725 21.9762C45.1864 21.9762 47.1961 23.9773 47.1961 26.4283C47.1961 28.8793 45.1956 30.8805 42.725 30.8805ZM5.85 17.6158C9.10422 17.6158 11.75 14.9812 11.75 11.7408C11.75 8.50039 9.10422 5.86582 5.85 5.86582C2.59578 5.86582 -0.05 8.50039 -0.05 11.7408C-0.05 14.9812 2.59578 17.6158 5.85 17.6158ZM26.5 20.5533C26.6752 20.5533 26.8411 20.5074 27.0163 20.4982C27.7814 18.5062 28.9061 16.6336 30.3627 15.0639C31.0448 14.3295 32.0128 13.9072 33.0269 13.9072C33.663 13.9072 34.2898 14.0725 34.8338 14.3937L35.562 14.816C35.6358 14.7701 35.7095 14.7334 35.7833 14.6875C36.4286 13.3473 36.8158 11.8602 36.8158 10.2812C36.8158 4.59902 32.1972 0 26.4908 0C20.7844 0 16.175 4.58984 16.175 10.2721C16.175 15.9543 20.7936 20.5533 26.5 20.5533ZM36.1981 38.4078C35.9861 38.2977 35.7741 38.1691 35.5713 38.0498C34.8153 38.4904 34.1608 38.9494 33.0361 38.9494C32.0312 38.9494 31.0633 38.5271 30.3719 37.7928C28.6848 35.9752 27.3942 33.7629 26.6659 31.4037C25.6795 28.2367 28.9614 26.8414 29.0444 26.7863C29.0352 26.5477 29.0352 26.309 29.0444 26.0703L28.3161 25.648C27.9658 25.4461 27.6708 25.1891 27.4127 24.9045C27.1084 24.9228 26.8134 24.9596 26.5092 24.9596C24.2414 24.9596 22.1211 24.4088 20.1944 23.4908H19.4292C13.5569 23.4908 8.8 28.2275 8.8 34.0658V36.7096C8.8 39.1422 10.782 41.1158 13.225 41.1158H36.7697C36.4286 40.565 36.1981 39.9408 36.1981 39.2523V38.4078ZM12.9577 22.2607C11.8883 21.2051 10.4225 20.5533 8.8 20.5533H2.9C-0.354219 20.5533 -3 23.1879 -3 26.4283V29.3658C-3 30.9906 -1.68172 32.3033 -0.05 32.3033H6.02516C6.60594 27.9521 9.2425 24.2895 12.9577 22.2607Z" fill="white"/>
</g>
<defs>
<clipPath id="clip0_10_188">
<rect width="59" height="47" fill="white"/>
</clipPath>
</defs>
</svg>
